<svg xmlns="http://www.w3.org/2000/svg" viewBox="0 0 625.1 256.82"><defs><style>.cls-1{fill:#171717;}.cls-2{fill:#ef522a;}</style></defs><title>Asset 3</title><g id="Layer_2" data-name="Layer 2"><g id="Layer_1-2" data-name="Layer 1"><path class="cls-1" d="M625.09,0,411.75,73.62s-5.32-17.13-24.18-15.05S366.82,77.5,368.5,84.63c0,0-25.26,7.52-29.14,7.07S322.3,75.17,314.24,61.38,281.65-10,235.74,3c0,0-21.58,10.87-14.78,41s37.21,75.19,36.74,76.53-3.36,6.6-12.28,11.68-22.49,12.76-22.49,12.76-7.73-13-26.09-9.7-20.7,24.2-16.36,32.48c0,0-160.14,77.29-163.12,78.07S13,247.25,9,240.16,1.37,219,.15,219.69s5.29,26.48,7.6,29.95,14.35,7.18,14.35,7.18l106.27-38.1,2.75,5.64,3.41-1.34,2.11,3.46L151,221.57s9.82,13.9,10.31,12.38-1.83-13.78-1.83-13.78L199.88,207s6.6,13.51,8.26,11.86-1.09-13.14-1.09-13.14L219,202l-1-5.33L238.06,191s8.83,14,9.94,12-.44-14.07-.44-14.07l4.72,5.38,14.63-2.61,3.57,9.41-2.09,1.08-1.26-2.57a4.51,4.51,0,1,0-8.1,4l5.88,12a4.43,4.43,0,0,0,2.88,2.35c-17.66,10-33.91,19.37-33.12,19.63,1.72.55,94.41-32.83,94.41-32.83s10.8,5.75,26.87,1.32c0,0,8.16-4.07,11.51-15,0,0,108-49,108-50.12s-1.83-2.09-7.85-.51c-3.88,1-43.82,13.32-71.72,21.95a4.52,4.52,0,0,0-.45-1.95l-5.88-12a4.51,4.51,0,0,0-8.1,4l1.81,3.7-2.1,1.09c-1.08-3-2.55-7.08-3.47-9.28l20.35-12.87-3.22-4.38c1.63-1.43,11.61,10.18,11.74,8.22S402.17,126,402.17,126L424,113.84l3,4.58,10-5.7s10.33,13,10.72,10.34-3.49-13.59-3.49-13.59l40.33-20.15s9.66,13.12,10.44,11.2-3.68-14-3.68-14l16.54-8.34.55-5,4.14-3L511,64.31s112.57-52,113.4-53.28S625.09,0,625.09,0ZM273,211.6l-2.69-5.51,1.74-.85.19.5,2.42-1.05-.2-.64,2.91-1.43,2.94,6a4.45,4.45,0,0,0,1.24,1.53l-8.28,4.66A4.52,4.52,0,0,0,273,211.6Zm15.82-5.51a4.34,4.34,0,0,0-.41-1.42l-5.88-12a4.51,4.51,0,1,0-8.1,3.95l.94,1.93-2.26,1.17-2.74-8.82,18.51-3.27,1.15-5.45a54.83,54.83,0,0,0,12.5,1.14s3.42,8,8.1,10.64C310.64,193.94,301.12,199.22,288.83,206.09Zm98.54-41.76a3.61,3.61,0,0,0,.33.53l-8.22,2.54-1.76-3.59,7.57-3.72Zm-9.32-5.62-2.25,1.16-1.52-3.11a4.5,4.5,0,0,0-8.54,1.89,18.39,18.39,0,0,0-1.26-2.47l8.48-5.36Z"/><path class="cls-2" d="M625.09,0,411.75,73.62s-5.32-17.13-24.18-15.05S366.82,77.5,368.5,84.63c0,0-25.26,7.52-29.14,7.07S322.3,75.17,314.24,61.38,281.65-10,235.74,3a31.86,31.86,0,0,0-13.64,16.1c7-1.66,23.38-3.39,42.56,9.86C290.13,46.56,310.82,87,317.48,93.27s15.58,10.51,20.45,9,30.62-8.43,30.62-8.43-.55-3.15,1.05-4.67,4.65-.33,4.65-.33c-4.11-4.14-2.38-21.77,9.88-25s20.35,7.83,17,18.35-23.06,12.49-23.06,12.49c22.71,4.23,29.37-13.45,29.37-13.45,13.43,18.13,5.77,32.42,5.77,32.42,9.94-15.08,2.29-34.9,2.29-34.9S591.77,15.67,625.07,4.09C625.12,1.88,625.09,0,625.09,0Z"/><path class="cls-2" d="M188.66,170.53a27.27,27.27,0,0,0,18.86-.3c9.9-3.95,12.13-11.26,12.13-11.26,12,14.16,8.92,24.48,8.92,24.48,7.17-15.75-2.84-30.22-2.84-30.22S249.23,139,252,136.33s5-14.58,5-14.6c-1.26,2.2-4.53,6.38-11.66,10.44-8.91,5.07-22.49,12.76-22.49,12.76s-7.73-13-26.09-9.7-20.7,24.2-16.36,32.48c0,0-160.14,77.29-163.12,78.07-.56.15-1.08.3-1.56.38l1.65,2.14,164.62-76.23c4.72,9.52,12,13.06,12,13.06-12-6.92-9.87-23.22-9.87-23.22-2.9-5.89-.18-19.31,12-22s20.79,7.06,18,19.15S188.66,170.53,188.66,170.53Z"/><path class="cls-2" d="M364.48,156.18l-6.73-7.67a29.3,29.3,0,0,1-1.53,13.27c7.3,12.31,6.87,35.73-12.21,39.3s-33.3-13.57-29.94-14.67,8.82-7.64,8.82-7.64c-12.77,7.6-20.35,4.53-20.35,4.53s3.42,8,8.1,10.64l-.83.46A41.06,41.06,0,0,0,328.25,205h0l.83-.3s10.8,5.75,26.87,1.32c0,0,8.16-4.07,11.51-15C371.84,170.91,364.48,156.18,364.48,156.18Z"/></g></g></svg>