<svg id="OBJECTS" xmlns="http://www.w3.org/2000/svg" viewBox="0 0 1349.25 970.5"><defs><style>.cls-1{fill:#09081f;}.cls-2{fill:#42cdc8;}.cls-3{fill:#073157;}.cls-4{fill:#1b4f77;}.cls-5{fill:#cbd2e4;}.cls-6{fill:#5e4637;}.cls-7{fill:#ffa4b4;}.cls-8{fill:#ffdd15;}.cls-9{fill:#a88e20;}.cls-10{fill:#0044cd;}.cls-11{fill:none;stroke:#cbd2e4;stroke-miterlimit:10;stroke-width:2px;}.cls-12{fill:#f9628d;}.cls-13{fill:#fcd6de;}.cls-14{fill:#e5d4d3;}</style></defs><title>sax_man</title><path class="cls-1" d="M920,143s-36.62-21.33-25.29-30.67S1020,155,1013,177.67,920,143,920,143Z" transform="translate(-17.21 -9.5)"/><path class="cls-1" d="M847,304s-14,31.6,0,70.6,47,269.25,114.49,271.48,59.69-61.59,47.84-171S885.5,276.9,847,304Z" transform="translate(-17.21 -9.5)"/><path class="cls-1" d="M950,573s-44-22-69-36-69-60-69-60l-10.65,60s115.46,161.82,187,133.87S950,573,950,573Z" transform="translate(-17.21 -9.5)"/><path class="cls-2" d="M1173,761.58S1142,978.93,1366,910C1366,910,1297.47,758.58,1173,761.58Z" transform="translate(-17.21 -9.5)"/><polygon class="cls-3" points="784.13 970.5 984.77 752.03 1050.79 682.79 1277.26 699.58 1226.26 970.5 1023.02 970.5 1076.77 842.07 995.12 970.5 784.13 970.5"/><polygon class="cls-4" points="1219.55 801.5 1154.32 970.5 1225.79 970.5 1258.14 801.5 1219.55 801.5"/><path class="cls-1" d="M1366,910s-22-44-76-62c-4-1.33-8.36-2.7-13-4.12-58.16-17.73-162.51-43.58-194-114.88,0,0-44,49-100,38,0,0,42-103,31-132S854,338,847,304c-3.13-15.21,49-75,127-87s168-5,190,31,94,246,114,288c1.48,3.11,3.27,7.26,5.29,12.31C1308.67,611.39,1372.48,815.56,1366,910Z" transform="translate(-17.21 -9.5)"/><path class="cls-3" d="M1366,910s-22-44-76-62c-4-1.33-8.36-2.7-13-4.12,1.72-116-31.56-283.08-31.56-283.08a110.78,110.78,0,0,1,37.86-12.49C1308.67,611.39,1372.48,815.56,1366,910Z" transform="translate(-17.21 -9.5)"/><path class="cls-5" d="M911.72,238.52,1013,487.67V213S951.83,210.35,911.72,238.52Z" transform="translate(-17.21 -9.5)"/><path class="cls-3" d="M889,252.41s15.77,81.92,22.71,94.59S929,356.33,929,356.33s-10.34,34.67,3,50,81,81.34,81,81.34L911.72,238.52S895.83,247.23,889,252.41Z" transform="translate(-17.21 -9.5)"/><path class="cls-3" d="M1012.57,212l-.24,274.87s38.34-106.44,36.34-117.77-18-25.38-18-25.38,40-25.16,37.34-49.16S1035.33,212,1035.33,212Z" transform="translate(-17.21 -9.5)"/><path class="cls-6" d="M920,145.67s.67,64.52,13.33,65.93S950,215,951,220.66l-11.64,3.76,20,23.25,28-33.65s-12-9.69-12.63-17.35L974,189s10-5.33,8.67-14.67-7.34-10.66-7.34-10.66S990,124.33,951,121C917.5,118.13,920,145.67,920,145.67Z" transform="translate(-17.21 -9.5)"/><polygon class="cls-5" points="948.79 237.5 948.79 223.5 966.13 192.17 979.46 202.1 948.79 246.5 948.79 237.5"/><polygon class="cls-5" points="924.13 209.58 940.79 236.61 940.79 246.5 916.79 216.99 924.13 209.58"/><path class="cls-1" d="M919.66,126.83S979,148.33,987,159V114L953.33,95Z" transform="translate(-17.21 -9.5)"/><path class="cls-7" d="M846.87,211.6S869,198.46,878,184.23L887,170l5.49,8S878,205.19,866,211.6,846.87,211.6,846.87,211.6Z" transform="translate(-17.21 -9.5)"/><polygon class="cls-7" points="797.79 209.5 797.79 219.5 817.79 223.75 843.79 216.62 836.75 197.45 797.79 209.5"/><path class="cls-8" d="M983.49,875.53c-20,23.29-53.5,40.57-103.49,48C755,942,668,742,648,698c-11-24.15-28.58-46.79-46.36-63.29C587,621.13,572.28,611.71,561,609c-16.45-4-43.28,2.06-59.72,6.64C492.73,618,487,620,487,620l83.1-287c12.55,18.56,22.9,31.46,40.9,48h0c14,13.73,33.62,30,62.35,54,63.25,53,75.7,149,109.2,232S865,841,889,821,773,555,713,440s-39-130-21-159,134-60.9,134-60.9l3,8.73S765,256,738,285s11,88,29,118c8.62,14.37,52.63,74.37,99.92,141.94H867c51,73.52,106.83,156,125.07,198.39C1013.07,792.16,1013.48,840.6,983.49,875.53Z" transform="translate(-17.21 -9.5)"/><path class="cls-9" d="M983.49,875.53C963.14,767.17,867.9,547.36,866.86,545,918.33,618.48,973.76,701,992,743.35,1013,792.16,1013.48,840.6,983.49,875.53Z" transform="translate(-17.21 -9.5)"/><path class="cls-9" d="M601.64,634.71C587,621.13,572.28,611.71,561,609c-16.45-4-43.28,2.06-59.72,6.64L610.81,381C611.05,382.41,635.4,527.47,601.64,634.71Z" transform="translate(-17.21 -9.5)"/><path class="cls-8" d="M595.47,494.43C564.3,599.12,495.9,671.15,442.71,655.31s-71-113.55-39.88-218.24S502.4,260.35,555.59,276.19,626.64,389.74,595.47,494.43Z" transform="translate(-17.21 -9.5)"/><path class="cls-9" d="M557.44,483.11c-12.64,42.43-35.37,76-58.68,90.64-11.5,7.24-23.13,9.88-33.77,6.71-32.19-9.58-43-68.71-24.13-132.07S501.12,341.45,533.31,351c8.69,2.59,15.82,8.79,21.23,17.71C569.17,392.86,571.21,436.86,557.44,483.11Z" transform="translate(-17.21 -9.5)"/><path class="cls-1" d="M557.44,483.11c-12.64,42.43-35.37,76-58.68,90.64-14.63-24.11-16.67-68.11-2.9-114.36,12.64-42.42,35.37-76,58.68-90.64C569.17,392.86,571.21,436.86,557.44,483.11Z" transform="translate(-17.21 -9.5)"/><path class="cls-10" d="M809,810.62,806.17,809c-37.63-21.26-51.83-70.47-63.24-110-1.29-4.47-2.55-8.85-3.81-13.08-4.57-15.3-8.62-30.94-12.54-46.06-2.71-10.49-5.52-21.34-8.48-32-1.41-5.08-2.73-11-4.12-17.32-4-18.28-9.07-41-19.19-51.94l4.41-4.08c11.22,12.12,16.22,34.75,20.64,54.72,1.37,6.22,2.67,12.08,4,17,3,10.69,5.79,21.57,8.51,32.08,3.91,15.08,7.94,30.66,12.48,45.85,1.27,4.25,2.53,8.65,3.83,13.14C760,736.66,772.84,781.05,806,802c3.28-13.8-7.49-37.73-14.8-54-2.42-5.37-4.51-10-6-13.86-6.55-17.32-15.1-34.79-23.38-51.69-3.64-7.43-7.41-15.12-10.95-22.7-9.41-20.11-21-46.93-27-76-.2-1-.48-2.16-.79-3.5-2.06-8.87-5.19-22.28-.41-29.08a9.52,9.52,0,0,1,6.88-4c12.21-1.42,18.51,18.38,22.27,30.21.6,1.89,1.12,3.52,1.56,4.74,7.85,21.74,14.94,44.42,21.8,66.36,12.34,39.48,25.11,80.32,42.92,117.86l-5.42,2.58c-18-37.93-30.82-79-43.23-118.65-6.84-21.88-13.91-44.5-21.71-66.11-.49-1.34-1-3-1.64-5-2.78-8.74-8.55-26.89-15.86-26.07a3.44,3.44,0,0,0-2.66,1.49c-3.24,4.59-.26,17.39,1.35,24.26.32,1.39.61,2.63.82,3.65,5.82,28.32,16.68,53.65,26.52,74.7,3.53,7.53,7.28,15.19,10.91,22.6,8.33,17,17,34.63,23.6,52.21,1.39,3.67,3.44,8.24,5.82,13.52,8.86,19.7,21,46.68,13.66,62.2Z" transform="translate(-17.21 -9.5)"/><path class="cls-10" d="M898.07,790.79c-9.3-38-28.6-76-47.27-112.81-4.69-9.24-9.12-18-13.43-26.75-8-16.28-16.93-33.23-25.57-49.62-12.63-23.93-25.69-48.68-36.54-72.74-6.61-14.64-14-29.22-21.06-43.33q-3.72-7.37-7.4-14.75c-2.55-5.12-4.9-10.71-7.4-16.63-5.47-13-11.12-26.39-19.17-35.59l4.52-3.95c8.68,9.93,14.53,23.8,20.18,37.21,2.46,5.83,4.78,11.34,7.24,16.29s4.92,9.82,7.39,14.72c7.13,14.16,14.51,28.81,21.16,43.56,10.79,23.9,23.8,48.56,36.38,72.41,8.67,16.43,17.63,33.42,25.66,49.78,4.29,8.75,8.71,17.46,13.39,26.68,18.82,37.06,38.28,75.39,47.75,114.1Z" transform="translate(-17.21 -9.5)"/><path class="cls-2" d="M959.34,241.71s-10.17-1.21-9.4,6.75,2.65,21.18,9.06,21.23,14.23-2.05,14.64-4.77S973.89,239.82,959.34,241.71Z" transform="translate(-17.21 -9.5)"/><path class="cls-2" d="M957.24,247.76s-26-15.57-43.83-15.85-13.64,9.36-4.52,20.53,2.76,25.85,9.84,33.87,40.12-22,40.12-22Z" transform="translate(-17.21 -9.5)"/><path class="cls-2" d="M965.2,247s22.52-20.26,40-24,15.18,6.57,8.38,19.28,2.27,25.9-3.15,35.14-43.58-13.87-43.58-13.87Z" transform="translate(-17.21 -9.5)"/><path class="cls-6" d="M720,453.29s-3,12.73,4.69,18,26,7.64,27.33,1.36-28-12.28-28-12.28Z" transform="translate(-17.21 -9.5)"/><path class="cls-6" d="M730.67,497s-.67,9.33,12,11.33,26,2.67,26-5.66S729.92,493.15,730.67,497Z" transform="translate(-17.21 -9.5)"/><path class="cls-6" d="M735.73,517c4,5.59,15.6,12,27.6,9.33s17.34-11.43,16-16.71-17.83,7.37-24.58,8.71S732.43,512.35,735.73,517Z" transform="translate(-17.21 -9.5)"/><path class="cls-6" d="M752,543c2,5.33,29.69-1.33,27.49-8S750.09,537.67,752,543Z" transform="translate(-17.21 -9.5)"/><path class="cls-6" d="M804.67,449.67s-2.94-14.65-14.8-13.32-1.87,46.39,2.8,50.52,8.68-33.58,8.68-33.58l8.77,11.53Z" transform="translate(-17.21 -9.5)"/><path class="cls-11" d="M17.53,335.34s66,22.22,111,88.48,48.55,91.38,112.77,93.83,159.73-18,213.9,15" transform="translate(-17.21 -9.5)"/><path class="cls-11" d="M47.53,207S166,268.1,202.75,341.6,262,453.35,311.52,457.47s112.1,19.32,143.68,44.79" transform="translate(-17.21 -9.5)"/><path class="cls-11" d="M478,486.87s-105.49-60.72-149.49-72.25S261.71,345.93,251.37,292,124,107.61,35.53,70.11" transform="translate(-17.21 -9.5)"/><path class="cls-12" d="M137,320.5s19.5-13.14,30-22.07,33-5.93,50.5-5.93-3.5,16-7.5,19-36.5,21-44,22S140.58,329,134.79,320" transform="translate(-17.21 -9.5)"/><path class="cls-13" d="M104.94,302.94s-12.88-3.4-21.94,0l6.3,6.23s4,7.36,7.39,9.06a19.17,19.17,0,0,1,5.68,4.53s4.54,7.92,9.64,10.75,6.79,12.43,6.79,12.43S112.58,382,188.45,398h4s20.38,49.85,45.86,59.47l-13-27.44s22.08,18.47,42.46,22.19L236,421.33s20.38,6.2,38.5,2.23c0,0-65.67-36.06-71.34-44.36a201.06,201.06,0,0,1-11.32-19.64s7.36,2.26,19.25-.57l-13-7.93s22.08-.56,30-9.05a48.43,48.43,0,0,1-16.42-6.8s30.57-1.7,38.5-14.15c0,0-22.08.56-29.44-2.27,0,0,26.61-4.71,32.83-17.36,0,0-25.47,1.32-39.06,0s-27.32-6-35.74,0-23.71,25.29-31.07,23-10.75-11.33-11.89-14.16S122.77,291.62,104.94,302.94Z" transform="translate(-17.21 -9.5)"/><path class="cls-13" d="M413.06,387.75l36.81,8.56s-18.23,34.92-23.2,26.08S402,397.73,402,397.73c-37.62,7.83-51.11-13.33-52.64-16.24s-3.74-12.81-12.22-14.22a11.66,11.66,0,0,1-9.7-9.29l-8.51-2.63c3.6-3.75,10.66-4.3,10.66-4.3,7-13.35,23.87-1.13,23.87-1.13s5.25,9.23,9.81,5S349,314.39,349,314.39c12.63,6.34,20.75,19.4,20.75,19.4l.72-6.26c4.89,5.16,9.11,19,9.11,19l3.66-6.57c3.5,3.11,5.49,16.3,5.49,16.3s12.9,1.57,25.29,2.16,41.18-4.66,41.18-4.66L432,368.56l11.87.94-16,9.84,7,2.17a67.8,67.8,0,0,1-11,1.47C418.11,383.23,413.06,387.75,413.06,387.75Z" transform="translate(-17.21 -9.5)"/><path class="cls-12" d="M388.73,356.3a251.3,251.3,0,0,0-25.51-1.42c4.57-4.26-14.22-40.49-14.22-40.49,12.63,6.34,20.75,19.4,20.75,19.4l.72-6.26c4.89,5.16,9.11,19,9.11,19l3.66-6.57C386.74,343.11,388.73,356.3,388.73,356.3Z" transform="translate(-17.21 -9.5)"/><path class="cls-13" d="M362.62,213s-33.53-4.5-52-23.63S288,168.81,269.52,168s-53.12-11.22-59.61-36.12-1.53-35.44-4.52-39.66-15.3-16.26-14.08-21.28-16.52-11.23-16.52-11.23,16.32-3.55,22.84-1.31S212,51.29,223.12,61.8a269,269,0,0,1,19.63,20.66s11.28-61.78,5.69-73c.47.78,15.4,25.89,17.34,31.53S271,34.36,271,34.36s4.73,15.65,4.83,23,5.43-5.83,5.43-5.83-2.72,40.61-4.76,43.61S285,93.58,295.41,97s42.78,13,63,.39c0,0-18.83,22.33-34.45,22.69l12.07,1.62s-20.09,8-29,7.2,3.15,2.14,3.15,2.14l13.36,2.64s-17,6.73-25,3.47-.1,10.91,7.91,16.35,62.11,37.82,62.11,37.82c-2.52.48-19,7.55-31-.61S362.62,213,362.62,213Z" transform="translate(-17.21 -9.5)"/><path class="cls-12" d="M281.3,51.57s-2.72,40.61-4.76,43.61C263.42,99.36,261,101.67,255,97.67s-12.25-15.21-12.25-15.21,11.28-61.78,5.69-73c.47.78,15.4,25.89,17.34,31.53S271,34.36,271,34.36s4.73,15.65,4.83,23S281.3,51.57,281.3,51.57Z" transform="translate(-17.21 -9.5)"/><path class="cls-6" d="M1010.24,611.37S960,620.08,931.7,626.58,877.15,642.91,866.29,643s-42.55,1.16-53.36,8.49-13.12,23.4-10.73,27,9.07,3,9.49-1.84,8.41-12.69,11.51-14.21,9.82-1.9,9.82-1.9-16.72,11.82-16.41,24,4.65,10,6.11,7,8.06-14.46,12.79-18.09S853,668,853,668s-10.06,8.73-10.75,15.66-.45,29.28,2,31.52S852,698.71,852,691.91s4.64-11.08,8.7-11.19,10.07-.59,10.07-.59-8.57,11.85-7.2,22.45-3.82,25.86,4,24.34,6.57-25.72,7.25-29.24,9.83-5.3,9.83-5.3,15.19-2.26,16.9-4S922,692,931.13,686.78s23.33-9.27,23.33-9.27,66.76-12.92,88.24-17.76,31.58-12.22,31.58-12.22l-37.07-51.23Z" transform="translate(-17.21 -9.5)"/><polygon class="cls-5" points="1020.12 582.83 992.12 594.83 1020.12 657.5 1050.79 651.5 1020.12 582.83"/><path class="cls-3" d="M1353,514c-.8,5.35-11.11,14-26.62,24-42.46,27.54-123.88,65.7-155.38,76-43,14-106,53-106,53l-39-73c12-4,67-52,82.56-71S1194,480,1194,480s-30-45-61-99-32.4-149.09-11-154c4.66-1.07,10-.42,15.82,1.71C1208.42,254.43,1355.77,495.53,1353,514Z" transform="translate(-17.21 -9.5)"/><path class="cls-12" d="M815.86,573.9c4.27,9.28,4.52,18.28.56,20.1s-10.62-4.24-14.89-13.52S797,562.2,801,560.39,811.6,564.62,815.86,573.9Z" transform="translate(-17.21 -9.5)"/><path class="cls-14" d="M717.86,403.9c4.27,9.28,4.52,18.28.56,20.1s-10.62-4.24-14.89-13.52S699,392.2,703,390.39,713.6,394.62,717.86,403.9Z" transform="translate(-17.21 -9.5)"/><path class="cls-14" d="M853.86,616.9c4.27,9.28,4.52,18.28.56,20.1s-10.62-4.24-14.89-13.52S835,605.2,839,603.39,849.6,607.62,853.86,616.9Z" transform="translate(-17.21 -9.5)"/><path class="cls-12" d="M878.86,757.9c4.27,9.28,4.52,18.28.56,20.1s-10.62-4.24-14.89-13.52S860,746.2,864,744.39,874.6,748.62,878.86,757.9Z" transform="translate(-17.21 -9.5)"/><path class="cls-14" d="M893.47,714.25c2.74,6,2.91,11.77.36,12.94s-6.84-2.73-9.58-8.7-2.91-11.76-.36-12.93S890.72,708.28,893.47,714.25Z" transform="translate(-17.21 -9.5)"/><path class="cls-14" d="M838.47,692.25c2.74,6,2.91,11.77.36,12.94s-6.84-2.73-9.58-8.7-2.91-11.76-.36-12.93S835.72,686.28,838.47,692.25Z" transform="translate(-17.21 -9.5)"/><path class="cls-14" d="M783.47,507.25c2.74,6,2.91,11.77.36,12.94s-6.84-2.73-9.58-8.7-2.91-11.76-.36-12.93S780.72,501.28,783.47,507.25Z" transform="translate(-17.21 -9.5)"/><path class="cls-12" d="M761.47,469.25c2.74,6,2.91,11.77.36,12.94s-6.84-2.73-9.58-8.7-2.91-11.76-.36-12.93S758.72,463.28,761.47,469.25Z" transform="translate(-17.21 -9.5)"/><path class="cls-4" d="M1353,514c-.8,5.35-11.11,14-26.62,24L1137.82,228.71C1208.42,254.43,1355.77,495.53,1353,514Z" transform="translate(-17.21 -9.5)"/></svg>